<svg width="21" height="21" viewBox="0 0 21 21" fill="none" xmlns="http://www.w3.org/2000/svg">
<g clip-path="url(#clip0_1808_13707)">
<path d="M0 0H21V21H0V0Z" fill="white"/>
<path d="M0 0V21H21V17.682H18.102L17.031 16.4291L15.918 17.682H7.686V11.0111H4.96986L8.36514 3.32514H11.6689L12.4669 5.06814V3.32514H16.569L17.2549 5.15214L17.9269 3.32514H21V0H0ZM18.627 4.41L17.5489 7.25214L17.262 8.02241L16.968 7.25214L15.8831 4.41H13.5101V10.0103H14.9381V6.36341L14.931 5.628L15.2111 6.36341L16.5761 10.0103H17.934L19.3061 6.36341L19.572 5.63514V10.0103H21V4.41H18.627ZM9.135 4.41L6.657 10.0103H8.28073L8.715 8.93214H11.4311L11.865 10.0103H13.5101L11.046 4.41H9.135ZM9.79273 6.30714L10.0729 5.60741L10.353 6.30714L10.9339 7.72086H9.21186L9.79273 6.30714ZM18.7391 11.0183L17.052 12.831L15.372 11.0183H8.83386V16.5971H13.5101V15.3864H10.2619V14.4131H13.4471V13.2094H10.2619V12.2291H13.5101V11.0184L16.1209 13.818L13.5101 16.5971H15.3161L17.0171 14.7773L18.711 16.5971H20.5657L17.9479 13.797L20.5657 11.0183H18.7391ZM19.4179 13.7903L21 15.4001V12.201L19.4179 13.7903Z" fill="#006FCF"/>
</g>
<defs>
<clipPath id="clip0_1808_13707">
<rect width="21" height="21" fill="white"/>
</clipPath>
</defs>
</svg>
