<svg width="20" height="20" viewBox="0 0 20 20" fill="none" xmlns="http://www.w3.org/2000/svg">
  <path d="M5.5 9.49751C5.5 7.22585 5.5 6.09001 6.2025 5.38418C6.90583 4.67834 8.03667 4.67834 10.3 4.67834H12.7C14.9625 4.67834 16.0942 4.67834 16.7967 5.38418C17.5 6.09001 17.5 7.22585 17.5 9.49751V13.5142C17.5 15.7858 17.5 16.9217 16.7967 17.6275C16.0942 18.3333 14.9625 18.3333 12.7 18.3333H10.3C8.03667 18.3333 6.90583 18.3333 6.2025 17.6275C5.49917 16.9217 5.5 15.7858 5.5 13.5142V9.49751Z" fill="#656668"/>
  <path opacity="0.5" d="M3.47667 2.64329C2.5 3.61913 2.5 5.19079 2.5 8.33329V9.99996C2.5 13.1425 2.5 14.7141 3.47667 15.69C3.99083 16.205 4.67083 16.4483 5.66 16.5633C5.5 15.8633 5.5 14.9 5.5 13.5133V9.49746C5.5 7.22579 5.5 6.08996 6.2025 5.38413C6.90583 4.67829 8.03667 4.67829 10.3 4.67829H12.7C14.0767 4.67829 15.0333 4.67829 15.7317 4.83663C15.6167 3.84246 15.3733 3.15996 14.8567 2.64329C13.8808 1.66663 12.3092 1.66663 9.16667 1.66663C6.02417 1.66663 4.4525 1.66663 3.47667 2.64329Z" fill="#656668"/>
</svg>
