<svg xmlns="http://www.w3.org/2000/svg" width="18" height="18" viewBox="0 0 18 18" fill="none">
  <g clip-path="url(#clip0_397_44)">
    <path d="M17.1361 17.0006V11.1316C17.1361 8.2606 16.5181 6.0496 13.1621 6.0496C12.5324 6.02704 11.9085 6.17564 11.3566 6.47958C10.8047 6.78352 10.3456 7.23142 10.0281 7.7756H9.98107V6.3176H6.79907V16.9996H10.1101V11.7106C10.1101 10.3176 10.3741 8.9716 12.0991 8.9716C13.7991 8.9716 13.8241 10.5606 13.8241 11.8006V17.0006H17.1361Z" fill="white"/>
    <path d="M1.40808 6.31885H4.72108V17.0009H1.40808V6.31885Z" fill="white"/>
    <path d="M3.06103 1.0005C2.67859 0.998924 2.3043 1.111 1.98567 1.3225C1.66704 1.53401 1.41843 1.83541 1.27139 2.18845C1.12436 2.5415 1.08552 2.93027 1.15982 3.30542C1.23411 3.68058 1.41819 4.0252 1.68869 4.29556C1.95918 4.56591 2.3039 4.74981 2.6791 4.82391C3.05429 4.89801 3.44304 4.85897 3.79601 4.71175C4.14897 4.56453 4.45025 4.31576 4.66159 3.99702C4.87293 3.67828 4.98481 3.30394 4.98303 2.9215C4.98276 2.41193 4.78015 1.92332 4.41973 1.56309C4.05932 1.20286 3.5706 1.0005 3.06103 1.0005Z" fill="white"/>
  </g>
  <defs>
    <clipPath id="clip0_397_44">
      <rect width="17" height="17" fill="white" transform="translate(0.5 0.5)"/>
    </clipPath>
  </defs>
</svg>
