<svg width="24" height="19" viewBox="0 0 24 19" fill="none" xmlns="http://www.w3.org/2000/svg">
<g clip-path="url(#clip0_1808_13702)">
<path d="M4.36274 18.9056V17.6481C4.36274 17.1659 4.07455 16.8516 3.58059 16.8516C3.33365 16.8516 3.06609 16.9355 2.88084 17.208C2.73684 16.9774 2.53105 16.8516 2.22234 16.8516C2.01646 16.8516 1.81077 16.9145 1.64605 17.145V16.8935H1.21387V18.9056H1.64605V17.7948C1.64605 17.4385 1.8313 17.2708 2.11949 17.2708C2.40749 17.2708 2.55168 17.4594 2.55168 17.7948V18.9056H2.98387V17.7948C2.98387 17.4385 3.18955 17.2708 3.45712 17.2708C3.7453 17.2708 3.8893 17.4594 3.8893 17.7948V18.9056H4.36274ZM10.7631 16.8935H10.0635V16.2857H9.6313V16.8935H9.24027V17.2917H9.63121V18.214C9.63121 18.6752 9.81646 18.9476 10.3104 18.9476C10.4957 18.9476 10.7014 18.8847 10.8456 18.8009L10.722 18.4236C10.5985 18.5074 10.4545 18.5284 10.3516 18.5284C10.1458 18.5284 10.0635 18.4027 10.0635 18.193V17.2917H10.7631V16.8935ZM14.4265 16.8515C14.1796 16.8515 14.015 16.9774 13.912 17.145V16.8935H13.4798V18.9056H13.912V17.7738C13.912 17.4385 14.056 17.2499 14.3236 17.2499C14.4059 17.2499 14.5088 17.2709 14.5911 17.2918L14.7146 16.8726C14.6323 16.8516 14.5088 16.8516 14.4265 16.8516M8.8904 17.0613C8.68452 16.9146 8.39643 16.8517 8.08771 16.8517C7.59384 16.8517 7.26459 17.1032 7.26459 17.5015C7.26459 17.8369 7.51152 18.0254 7.94371 18.0883L8.14949 18.1094C8.3759 18.1512 8.49937 18.2141 8.49937 18.3189C8.49937 18.4656 8.33474 18.5704 8.04656 18.5704C7.75837 18.5704 7.53205 18.4656 7.38796 18.3608L7.18218 18.6962C7.40859 18.8638 7.7173 18.9476 8.02593 18.9476C8.60221 18.9476 8.93156 18.6752 8.93156 18.2979C8.93156 17.9416 8.66399 17.7529 8.25234 17.6901L8.04656 17.6691C7.86131 17.6481 7.7173 17.6063 7.7173 17.4805C7.7173 17.3338 7.8613 17.25 8.08771 17.25C8.33474 17.25 8.58168 17.3547 8.70515 17.4176L8.8904 17.0613ZM20.3743 16.8517C20.1273 16.8517 19.9626 16.9775 19.8597 17.1451V16.8936H19.4275V18.9057H19.8597V17.7739C19.8597 17.4386 20.0038 17.25 20.2713 17.25C20.3537 17.25 20.4566 17.271 20.5389 17.2919L20.6624 16.8727C20.5801 16.8517 20.4566 16.8517 20.3743 16.8517ZM14.8587 17.8997C14.8587 18.5075 15.2703 18.9476 15.9083 18.9476C16.1964 18.9476 16.4022 18.8848 16.608 18.7172L16.4022 18.3608C16.2376 18.4866 16.073 18.5494 15.8877 18.5494C15.5378 18.5494 15.2909 18.2979 15.2909 17.8997C15.2909 17.5225 15.5378 17.2709 15.8877 17.25C16.073 17.25 16.2376 17.3128 16.4022 17.4386L16.608 17.0823C16.4022 16.9146 16.1964 16.8517 15.9083 16.8517C15.2703 16.8517 14.8587 17.2919 14.8587 17.8997ZM18.8513 17.8997V16.8936H18.4191V17.1451C18.2751 16.9566 18.0693 16.8517 17.8017 16.8517C17.2461 16.8517 16.8139 17.2919 16.8139 17.8997C16.8139 18.5075 17.2461 18.9476 17.8017 18.9476C18.0898 18.9476 18.2957 18.8429 18.4191 18.6542V18.9057H18.8513V17.8997ZM17.2666 17.8997C17.2666 17.5434 17.493 17.25 17.8634 17.25C18.2133 17.25 18.4603 17.5225 18.4603 17.8997C18.4603 18.256 18.2133 18.5494 17.8634 18.5494C17.493 18.5284 17.2666 18.256 17.2666 17.8997ZM12.101 16.8517C11.5247 16.8517 11.113 17.2709 11.113 17.8997C11.113 18.5285 11.5246 18.9476 12.1215 18.9476C12.4096 18.9476 12.6978 18.8638 12.9242 18.6752L12.7183 18.3608C12.5537 18.4866 12.3479 18.5704 12.1421 18.5704C11.8746 18.5704 11.607 18.4447 11.5452 18.0883H13.0065V17.9207C13.0271 17.2709 12.6567 16.8517 12.101 16.8517ZM12.1009 17.229C12.3683 17.229 12.5537 17.3967 12.5947 17.7111H11.5657C11.6069 17.4386 11.7921 17.229 12.1009 17.229ZM22.8232 17.8997V16.0972H22.3911V17.1451C22.247 16.9566 22.0412 16.8517 21.7736 16.8517C21.218 16.8517 20.7858 17.2919 20.7858 17.8997C20.7858 18.5075 21.218 18.9476 21.7736 18.9476C22.0618 18.9476 22.2676 18.8429 22.3911 18.6542V18.9057H22.8232V17.8997ZM21.2386 17.8997C21.2386 17.5434 21.4649 17.25 21.8354 17.25C22.1853 17.25 22.4322 17.5225 22.4322 17.8997C22.4322 18.256 22.1853 18.5494 21.8354 18.5494C21.4649 18.5284 21.2386 18.256 21.2386 17.8997ZM6.79105 17.8997V16.8936H6.35887V17.1451C6.21477 16.9566 6.00899 16.8517 5.74143 16.8517C5.18577 16.8517 4.75359 17.2919 4.75359 17.8997C4.75359 18.5075 5.18577 18.9476 5.74143 18.9476C6.02962 18.9476 6.2354 18.8429 6.35887 18.6542V18.9057H6.79105V17.8997ZM5.18577 17.8997C5.18577 17.5434 5.41218 17.25 5.78259 17.25C6.13246 17.25 6.37949 17.5225 6.37949 17.8997C6.37949 18.256 6.13246 18.5494 5.78259 18.5494C5.41218 18.5284 5.18577 18.256 5.18577 17.8997Z" fill="black"/>
<path d="M8.74707 1.61377H15.2299V13.4769H8.74707V1.61377Z" fill="#FF5F00"/>
<path d="M9.15835 7.54548C9.15835 5.13516 10.2697 2.99723 11.9778 1.61385C10.7225 0.607809 9.13781 0 7.40906 0C3.31341 0 0 3.37446 0 7.54548C0 11.7165 3.31341 15.091 7.40897 15.091C9.13772 15.091 10.7224 14.4832 11.9778 13.477C10.2697 12.1146 9.15835 9.95581 9.15835 7.54548Z" fill="#EB001B"/>
<path d="M23.9758 7.54548C23.9758 11.7164 20.6624 15.091 16.5669 15.091C14.8381 15.091 13.2535 14.4832 11.998 13.477C13.7268 12.0937 14.8176 9.95581 14.8176 7.54548C14.8176 5.13516 13.7062 2.99723 11.998 1.61385C13.2534 0.607809 14.8381 0 16.5669 0C20.6624 0 23.9758 3.39546 23.9758 7.54548Z" fill="#F79E1B"/>
</g>
<defs>
<clipPath id="clip0_1808_13702">
<rect width="24" height="19" fill="white"/>
</clipPath>
</defs>
</svg>
