<svg width="17" height="17" viewBox="0 0 17 17" fill="none" xmlns="http://www.w3.org/2000/svg">
  <path d="M10.2127 6.78723C9.89792 6.47232 9.52416 6.22251 9.11279 6.05208C8.70142 5.88164 8.2605 5.79392 7.81522 5.79392C7.36995 5.79392 6.92903 5.88164 6.51766 6.05208C6.10629 6.22251 5.73253 6.47232 5.41772 6.78723L1.99272 10.2132C1.357 10.8491 0.999906 11.7114 1 12.6106C1.00009 13.5097 1.35737 14.372 1.99322 15.0077C2.62908 15.6435 3.49143 16.0006 4.39058 16.0005C5.28972 16.0004 6.152 15.6431 6.78772 15.0072L7.10872 14.7032M6.78772 10.2132C7.10253 10.5281 7.47629 10.778 7.88766 10.9484C8.29903 11.1188 8.73995 11.2066 9.18522 11.2066C9.6305 11.2066 10.0714 11.1188 10.4828 10.9484C10.8942 10.778 11.2679 10.5281 11.5827 10.2132L15.0067 6.78723C15.6426 6.15151 15.9999 5.28923 15.9999 4.39009C16 3.49095 15.6429 2.62859 15.0072 1.99273C14.3715 1.35688 13.5092 0.999606 12.6101 0.999512C11.7109 0.999418 10.8486 1.35651 10.2127 1.99224L9.18472 2.95324" stroke="#5A4BEA" stroke-width="2" stroke-linecap="round" stroke-linejoin="round"/>
</svg>
