<svg width="40" height="40" viewBox="0 0 40 40" fill="none" xmlns="http://www.w3.org/2000/svg">
  <path fill-rule="evenodd" clip-rule="evenodd" d="M20 0C20.6365 0 21.247 0.252857 21.6971 0.702944C22.1471 1.15303 22.4 1.76348 22.4 2.4V17.6H37.6C38.2365 17.6 38.847 17.8529 39.2971 18.3029C39.7471 18.753 40 19.3635 40 20C40 20.6365 39.7471 21.247 39.2971 21.6971C38.847 22.1471 38.2365 22.4 37.6 22.4H22.4V37.6C22.4 38.2365 22.1471 38.847 21.6971 39.2971C21.247 39.7471 20.6365 40 20 40C19.3635 40 18.753 39.7471 18.3029 39.2971C17.8529 38.847 17.6 38.2365 17.6 37.6V22.4H2.4C1.76348 22.4 1.15303 22.1471 0.702944 21.6971C0.252857 21.247 0 20.6365 0 20C0 19.3635 0.252857 18.753 0.702944 18.3029C1.15303 17.8529 1.76348 17.6 2.4 17.6H17.6V2.4C17.6 1.76348 17.8529 1.15303 18.3029 0.702944C18.753 0.252857 19.3635 0 20 0Z" fill="#90928D"/>
</svg>
