<svg width="16" height="18" viewBox="0 0 16 18" fill="none" xmlns="http://www.w3.org/2000/svg">
  <path d="M11.1396 0.5C11.2444 1.47884 11.6546 2.40541 12.3193 3.15039V3.15137C13.095 4.02876 14.0184 4.44005 14.7393 4.63184C15.0307 4.70936 15.2915 4.75055 15.5 4.77344V6.87207C14.2055 6.7837 12.9583 6.346 11.9004 5.60156L11.1123 5.04688V12.2998C11.1123 15.1648 8.7426 17.5 5.80566 17.5C3.06048 17.4998 0.5 15.3228 0.5 12.2998C0.500112 9.33299 3.05746 6.95847 6.10156 7.11719V9.21387C4.2836 9.04171 2.6632 10.4557 2.66309 12.2998C2.66309 13.9738 4.01452 15.3142 5.65625 15.3965L5.81641 15.4004C6.62804 15.4008 7.41018 15.0922 7.99707 14.5371C8.58432 13.9816 8.9304 13.2218 8.95898 12.418V0.5H11.1396Z" fill="white" stroke="white"/>
</svg>
