<svg width="140" height="41" viewBox="0 0 439 143" fill="none" xmlns="http://www.w3.org/2000/svg">
  <path d="M2.98984 128.929H71.1198C71.3665 128.929 71.603 129.027 71.7775 129.201C71.9519 129.376 72.0498 129.612 72.0498 129.859V133.589C72.0498 133.835 71.9519 134.072 71.7775 134.246C71.603 134.421 71.3665 134.519 71.1198 134.519H2.98984C2.35393 134.506 1.74797 134.246 1.30008 133.794C0.852197 133.343 0.597501 132.735 0.589844 132.099V131.369C0.592321 130.729 0.844726 130.116 1.29316 129.66C1.74159 129.204 2.3505 128.942 2.98984 128.929Z" fill="#009245" stroke="black" stroke-miterlimit="10"/>
  <path d="M72.0101 33.4385C71.0101 16.1585 56.0101 0.938477 36.3101 0.938477C17.9401 0.938477 3.55015 13.3185 0.980147 29.7685C0.790497 30.9842 0.666981 32.2093 0.610146 33.4385C0.610146 34.5385 0.510147 35.7785 0.480147 37.1585C0.110147 51.5685 0.610146 79.7985 0.610146 91.3285C0.610146 109.278 16.6101 123.838 36.3101 123.838H70.7701C71.0999 123.836 71.4153 123.703 71.6476 123.469C71.8798 123.235 72.0102 122.918 72.0101 122.588V91.3285C72.0101 78.7085 72.7201 46.0485 72.0101 33.4385ZM23.8801 68.2885C23.8801 62.2885 29.2801 57.4185 35.8801 57.4185C42.4801 57.4185 47.9402 62.2785 47.9402 68.2885C47.9402 74.2985 42.5401 79.1485 35.8801 79.1485C29.2201 79.1485 23.8801 74.2885 23.8801 68.2885Z" fill="#009245" stroke="black" stroke-width="0.5" stroke-miterlimit="10"/>
  <path d="M71.991 37.1093C72.721 17.1093 56.051 1.2793 36.331 1.2793C19.121 1.2793 3.96101 13.3393 0.98101 29.7693C0.540629 32.2064 0.37293 34.685 0.481011 37.1593C0.67101 41.5493 0.591009 47.4893 0.591009 54.4193C1.04101 60.2793 3.42101 66.8093 8.74101 74.1293C14.061 81.4493 22.281 89.5893 34.491 98.5893C35.0103 98.9788 35.6419 99.1893 36.291 99.1893C36.9401 99.1893 37.5717 98.9788 38.091 98.5893C42.671 95.2293 46.651 92.0793 50.091 89.0793C65.091 76.1493 70.481 66.2193 71.981 56.4693V51.5893C72.021 44.5893 71.841 41.3193 71.991 37.1093ZM35.931 79.1093C29.281 79.1093 23.931 74.2493 23.931 68.2493C23.931 62.2493 29.331 57.3793 35.931 57.3793C42.531 57.3793 47.991 62.2393 47.991 68.2493C47.991 74.2593 42.591 79.1493 35.931 79.1493V79.1093Z" fill="#009245" stroke="black" stroke-width="0.5" stroke-miterlimit="10"/>
  <path d="M50.1211 88.5884C50.1211 106.868 59.7311 121.688 71.5911 121.688L72.0211 55.4884C60.1611 55.4384 50.1211 70.2584 50.1211 88.5884Z" fill="#009245" stroke="black" stroke-width="0.5" stroke-miterlimit="10"/>
  <path d="M22.8494 128.728C22.8311 129.308 22.584 129.856 22.1623 130.253C21.7406 130.651 21.1786 130.865 20.5994 130.848C20.3131 130.856 20.028 130.808 19.7604 130.706C19.4929 130.603 19.2481 130.449 19.0401 130.253C18.832 130.056 18.6649 129.82 18.5481 129.558C18.4313 129.297 18.3671 129.015 18.3594 128.728V118.138C18.3671 117.852 18.4313 117.57 18.5481 117.309C18.6649 117.047 18.832 116.811 19.0401 116.614C19.2481 116.417 19.4929 116.263 19.7604 116.161C20.028 116.059 20.3131 116.01 20.5994 116.018C21.1786 116.002 21.7406 116.216 22.1623 116.614C22.584 117.011 22.8311 117.559 22.8494 118.138V128.728Z" fill="#FF9300" stroke="black" stroke-width="0.25" stroke-miterlimit="10"/>
  <path d="M27.3611 128.728C27.3428 129.308 27.0957 129.856 26.674 130.253C26.2523 130.651 25.6903 130.865 25.1111 130.848C24.8248 130.856 24.5397 130.808 24.2722 130.706C24.0046 130.603 23.7598 130.449 23.5518 130.253C23.3438 130.056 23.1766 129.82 23.0598 129.558C22.943 129.297 22.8789 129.015 22.8711 128.728V118.138C22.8789 117.852 22.943 117.57 23.0598 117.309C23.1766 117.047 23.3438 116.811 23.5518 116.614C23.7598 116.417 24.0046 116.263 24.2722 116.161C24.5397 116.059 24.8248 116.01 25.1111 116.018C25.6903 116.002 26.2523 116.216 26.674 116.614C27.0957 117.011 27.3428 117.559 27.3611 118.138V128.728Z" fill="#FF9300" stroke="black" stroke-width="0.25" stroke-miterlimit="10"/>
  <path d="M31.8709 128.728C31.8526 129.308 31.6055 129.856 31.1838 130.253C30.7621 130.651 30.2001 130.865 29.6209 130.848C29.3346 130.856 29.0495 130.808 28.7819 130.706C28.5144 130.603 28.2696 130.449 28.0616 130.253C27.8535 130.056 27.6863 129.82 27.5695 129.558C27.4527 129.297 27.3886 129.015 27.3809 128.728V118.138C27.3886 117.852 27.4527 117.57 27.5695 117.309C27.6863 117.047 27.8535 116.811 28.0616 116.614C28.2696 116.417 28.5144 116.263 28.7819 116.161C29.0495 116.059 29.3346 116.01 29.6209 116.018C30.2001 116.002 30.7621 116.216 31.1838 116.614C31.6055 117.011 31.8526 117.559 31.8709 118.138V128.728Z" fill="#FF9300" stroke="black" stroke-width="0.25" stroke-miterlimit="10"/>
  <path d="M48.7009 128.729C48.6932 129.016 48.6287 129.299 48.5113 129.561C48.3939 129.823 48.2258 130.06 48.0167 130.257C47.8076 130.454 47.5616 130.607 47.2929 130.709C47.0242 130.811 46.7381 130.858 46.4509 130.849C46.1646 130.857 45.8796 130.808 45.612 130.706C45.3444 130.604 45.0997 130.45 44.8916 130.253C44.6836 130.056 44.5164 129.82 44.3996 129.559C44.2828 129.297 44.2187 129.015 44.2109 128.729V118.139C44.2187 117.852 44.2828 117.57 44.3996 117.309C44.5164 117.047 44.6836 116.811 44.8916 116.615C45.0997 116.418 45.3444 116.264 45.612 116.161C45.8796 116.059 46.1646 116.011 46.4509 116.019C46.7381 116.009 47.0242 116.057 47.2929 116.159C47.5616 116.26 47.8076 116.414 48.0167 116.611C48.2258 116.808 48.3939 117.044 48.5113 117.307C48.6287 117.569 48.6932 117.852 48.7009 118.139V128.729Z" fill="#FF9300" stroke="black" stroke-width="0.25" stroke-miterlimit="10"/>
  <path d="M53.2107 128.729C53.2029 129.016 53.1385 129.299 53.0211 129.561C52.9037 129.823 52.7356 130.06 52.5265 130.257C52.3174 130.454 52.0714 130.607 51.8027 130.709C51.534 130.811 51.2478 130.858 50.9607 130.849C50.6744 130.857 50.3893 130.808 50.1218 130.706C49.8542 130.604 49.6094 130.45 49.4014 130.253C49.1934 130.056 49.0262 129.82 48.9094 129.559C48.7926 129.297 48.7285 129.015 48.7207 128.729V118.139C48.7285 117.852 48.7926 117.57 48.9094 117.309C49.0262 117.047 49.1934 116.811 49.4014 116.615C49.6094 116.418 49.8542 116.264 50.1218 116.161C50.3893 116.059 50.6744 116.011 50.9607 116.019C51.2478 116.009 51.534 116.057 51.8027 116.159C52.0714 116.26 52.3174 116.414 52.5265 116.611C52.7356 116.808 52.9037 117.044 53.0211 117.307C53.1385 117.569 53.2029 117.852 53.2107 118.139V128.729Z" fill="#FF9300" stroke="black" stroke-width="0.25" stroke-miterlimit="10"/>
  <path d="M57.7213 128.729C57.7135 129.016 57.6491 129.299 57.5316 129.561C57.4142 129.823 57.2461 130.06 57.037 130.257C56.8279 130.454 56.582 130.607 56.3132 130.709C56.0445 130.811 55.7584 130.858 55.4713 130.849C54.9016 130.852 54.3535 130.631 53.9442 130.235C53.5349 129.839 53.2969 129.298 53.2812 128.729V118.139C53.289 117.852 53.3531 117.57 53.4699 117.309C53.5867 117.047 53.7539 116.811 53.962 116.615C54.17 116.418 54.4148 116.264 54.6823 116.161C54.9499 116.059 55.2349 116.011 55.5212 116.019C55.8084 116.009 56.0945 116.057 56.3632 116.159C56.632 116.26 56.8779 116.414 57.087 116.611C57.2961 116.808 57.4642 117.044 57.5816 117.307C57.6991 117.569 57.7635 117.852 57.7712 118.139L57.7213 128.729Z" fill="#FF9300" stroke="black" stroke-width="0.25" stroke-miterlimit="10"/>
  <path d="M36.2797 34.2788C34.8712 34.2517 33.4821 34.61 32.2625 35.315C31.0429 36.0199 30.0392 37.0448 29.3597 38.2788C29.0006 39.0148 28.8652 39.84 28.97 40.6522C29.0749 41.4644 29.4155 42.228 29.9497 42.8488L35.3597 49.3888C35.4723 49.5233 35.613 49.6314 35.772 49.7056C35.9309 49.7799 36.1042 49.8183 36.2797 49.8183C36.4551 49.8183 36.6284 49.7799 36.7873 49.7056C36.9463 49.6314 37.087 49.5233 37.1997 49.3888L42.5997 42.8688C43.1662 42.189 43.5103 41.3516 43.5854 40.4699C43.6605 39.5881 43.463 38.7046 43.0197 37.9388C42.3066 36.7998 41.3114 35.8644 40.1306 35.2231C38.9497 34.5819 37.6232 34.2566 36.2797 34.2788Z" fill="#FF9300" stroke="black" stroke-width="0.75" stroke-miterlimit="10"/>
  <path d="M35.9297 32.6787C35.9297 40.9787 28.5497 47.6787 19.4297 47.6787C10.3097 47.6787 2.92969 40.9487 2.92969 32.6787C2.92969 24.4087 10.3197 17.6787 19.4297 17.6787C28.5397 17.6787 35.9297 24.3787 35.9297 32.6787Z" fill="#F1F1F1" stroke="black" stroke-width="0.75" stroke-miterlimit="10"/>
  <path d="M30.5096 32.6789C30.5096 38.2489 25.5096 42.7689 19.4296 42.7689C13.3496 42.7689 8.34961 38.2489 8.34961 32.6789C8.34961 27.1089 13.2796 22.5889 19.4296 22.5889C25.5796 22.5889 30.5096 27.1089 30.5096 32.6789Z" fill="#009245" stroke="black" stroke-width="0.25" stroke-miterlimit="10"/>
  <path d="M19.4297 24.499C14.4797 24.499 10.4297 28.169 10.4297 32.679C10.4297 37.189 14.4297 40.859 19.4297 40.859C24.4297 40.859 28.4297 37.189 28.4297 32.679C28.4297 28.169 24.3897 24.499 19.4297 24.499Z" fill="#F1F1F1"/>
  <path d="M27.0895 32.6787C27.0895 36.5287 23.6595 39.6787 19.4295 39.6787C15.1995 39.6787 11.7695 36.5587 11.7695 32.6787C11.7695 28.7987 15.1995 25.6787 19.4295 25.6787C23.6595 25.6787 27.0895 28.8287 27.0895 32.6787Z" fill="#201815"/>
  <path d="M25.7597 30.5889C25.7981 31.0106 25.708 31.4341 25.5013 31.8038C25.2946 32.1734 24.981 32.4719 24.6016 32.6601C24.2222 32.8483 23.7947 32.9174 23.3754 32.8583C22.956 32.7992 22.5643 32.6147 22.2517 32.329C21.9391 32.0434 21.7201 31.6698 21.6236 31.2575C21.5271 30.8451 21.5575 30.4132 21.7109 30.0184C21.8642 29.6236 22.1334 29.2845 22.483 29.0454C22.8325 28.8064 23.2462 28.6786 23.6697 28.6789C23.9325 28.6668 24.195 28.7066 24.4423 28.7961C24.6895 28.8856 24.9168 29.023 25.1109 29.2004C25.305 29.3778 25.4623 29.5918 25.5736 29.83C25.6849 30.0683 25.7482 30.3261 25.7597 30.5889Z" fill="#F1F1F1"/>
  <path d="M69.8105 32.6787C69.8105 40.9787 62.4305 47.6787 53.3105 47.6787C44.1905 47.6787 36.8105 40.9487 36.8105 32.6787C36.8105 24.4087 44.2005 17.6787 53.3105 17.6787C62.4205 17.6787 69.8105 24.3787 69.8105 32.6787Z" fill="#F1F1F1" stroke="black" stroke-width="0.75" stroke-miterlimit="10"/>
  <path d="M64.3913 32.6789C64.3913 38.2489 59.3912 42.7689 53.3112 42.7689C47.2312 42.7689 42.2812 38.2489 42.2812 32.6789C42.2812 27.1089 47.1912 22.5889 53.2812 22.5889C59.3713 22.5889 64.3913 27.1089 64.3913 32.6789Z" fill="#009245" stroke="black" stroke-width="0.25" stroke-miterlimit="10"/>
  <path d="M53.2812 24.499C48.2812 24.499 44.2812 28.169 44.2812 32.679C44.2812 37.189 48.2812 40.859 53.2812 40.859C58.2812 40.859 62.2812 37.189 62.2812 32.679C62.2812 28.169 58.2812 24.499 53.2812 24.499Z" fill="#F1F1F1"/>
  <path d="M60.9704 32.6787C60.9704 36.5287 57.5404 39.6787 53.3104 39.6787C49.0804 39.6787 45.6504 36.5587 45.6504 32.6787C45.6504 28.7987 49.0804 25.6787 53.3104 25.6787C57.5404 25.6787 60.9704 28.8287 60.9704 32.6787Z" fill="#201815" stroke="black" stroke-width="0.25" stroke-miterlimit="10"/>
  <path d="M59.6406 30.5889C59.6789 31.0106 59.5888 31.4341 59.3821 31.8038C59.1754 32.1734 58.8618 32.4719 58.4824 32.6601C58.103 32.8483 57.6756 32.9174 57.2562 32.8583C56.8369 32.7992 56.4452 32.6147 56.1326 32.329C55.8199 32.0434 55.601 31.6698 55.5045 31.2575C55.408 30.8451 55.4384 30.4132 55.5917 30.0184C55.7451 29.6236 56.0142 29.2845 56.3638 29.0454C56.7134 28.8064 57.1271 28.6786 57.5506 28.6789C57.8133 28.6668 58.0758 28.7066 58.3231 28.7961C58.5704 28.8856 58.7976 29.023 58.9918 29.2004C59.1859 29.3778 59.3431 29.5918 59.4545 29.83C59.5658 30.0683 59.6291 30.3261 59.6406 30.5889Z" fill="#F1F1F1" stroke="black" stroke-width="0.25" stroke-miterlimit="10"/>
  <path d="M72.1603 2.71928C72.2307 2.65643 72.2871 2.57939 72.3257 2.49322C72.3643 2.40705 72.3843 2.3137 72.3843 2.21928C72.3843 2.12486 72.3643 2.03149 72.3257 1.94532C72.2871 1.85915 72.2307 1.78213 72.1603 1.71928C66.7703 -2.08072 55.0403 1.71928 45.3303 10.5593C41.6925 13.7745 38.6465 17.6024 36.3303 21.8693C34.0174 17.6002 30.9709 13.7718 27.3303 10.5593C17.6203 1.70928 5.89027 -2.08072 0.500273 1.71928C0.426552 1.77853 0.366212 1.85272 0.32322 1.93696C0.280228 2.02121 0.255559 2.11359 0.250836 2.20805C0.246113 2.30251 0.261443 2.3969 0.295817 2.48501C0.330191 2.57312 0.382831 2.65297 0.450274 2.71928L35.7603 34.8693C35.9077 35.0042 36.1004 35.079 36.3003 35.079C36.5002 35.079 36.6928 35.0042 36.8403 34.8693L72.1603 2.71928Z" fill="#009245" stroke="black" stroke-width="0.5" stroke-miterlimit="10"/>
  <path d="M181.383 73.8643C181.383 86.5596 177.335 97.2 169.237 105.786C160.977 114.493 150.52 118.847 137.865 118.847C125.292 118.847 114.855 114.453 106.554 105.664C98.4162 97.078 94.3472 86.4782 94.3472 73.8643C94.3472 61.2096 98.4162 50.5692 106.554 41.9429C114.855 33.1131 125.292 28.6982 137.865 28.6982C150.357 28.6982 160.774 33.1131 169.115 41.9429C177.294 50.6506 181.383 61.291 181.383 73.8643ZM158.251 73.7422C158.251 67.6387 156.4 62.4507 152.697 58.1782C148.831 53.7023 143.887 51.4644 137.865 51.4644C132.128 51.4644 127.265 53.7837 123.278 58.4224C119.412 62.8983 117.479 68.0456 117.479 73.8643C117.479 80.0898 119.29 85.2778 122.912 89.4282C126.736 93.7821 131.721 95.959 137.865 95.959C143.603 95.959 148.485 93.66 152.514 89.062C156.339 84.6675 158.251 79.5609 158.251 73.7422ZM277.636 73.8643C277.636 80.2119 277.127 84.6268 276.11 87.1089C275.052 89.7131 272.407 94.5552 268.175 101.635C263.862 108.919 260.892 113.435 259.264 115.185C258.166 116.365 255.48 116.955 251.208 116.955C247.667 116.955 245.43 116.833 244.494 116.589C243.721 116.385 243.008 115.979 242.357 115.368C240.038 113.09 236.457 107.495 231.615 98.5835C226.488 107.739 222.989 113.334 221.117 115.368C220.141 116.426 217.475 116.955 213.122 116.955C210.029 116.955 208.035 116.833 207.14 116.589C205.106 116.019 201.667 111.604 196.825 103.344C192.878 96.5897 190.05 91.1779 188.341 87.1089C187.283 84.5047 186.754 80.0898 186.754 73.8643C186.754 66.3366 186.958 61.7386 187.365 60.0703C187.65 59.0124 188.362 58.4834 189.501 58.4834C191.373 58.4834 194.18 58.5444 197.924 58.6665C201.667 58.7886 204.475 58.8496 206.347 58.8496C207.283 58.8496 207.75 59.521 207.75 60.8638C207.75 62.0438 207.71 63.8545 207.628 66.2959C207.547 68.6966 207.506 70.487 207.506 71.667C207.506 76.5905 207.628 80.2323 207.873 82.5923C207.954 83.4875 209.032 85.7865 211.107 89.4893C213.223 93.1514 214.525 94.9824 215.014 94.9824C215.746 94.9824 217.089 93.1717 219.042 89.5503C220.629 86.4985 221.667 84.2402 222.155 82.7754C222.643 81.2699 222.887 77.5874 222.887 71.728C222.887 70.5073 222.765 68.6966 222.521 66.2959C222.318 63.8545 222.216 62.0438 222.216 60.8638C222.216 59.6024 222.684 58.9717 223.62 58.9717C224.759 58.9717 227.017 58.9513 230.395 58.9106L232.897 58.8496C232.856 58.8496 232.775 58.8496 232.653 58.8496C232.571 58.8089 232.551 58.8089 232.592 58.8496H233.019H234.606C236.152 58.8089 238.41 58.8496 241.381 58.9717C242.276 59.0938 242.724 59.7244 242.724 60.8638C242.724 62.41 242.622 64.77 242.418 67.9438C242.215 71.077 242.113 73.4167 242.113 74.9629C242.113 79.1133 242.276 81.7378 242.602 82.8364C243.049 84.2199 244.026 86.4375 245.531 89.4893C247.362 93.1514 248.644 94.9824 249.376 94.9824C250.109 94.9824 251.472 93.131 253.466 89.4282C255.378 85.8882 256.396 83.5688 256.518 82.4702C256.68 80.924 256.762 73.7218 256.762 60.8638C256.762 59.4396 257.169 58.7275 257.982 58.7275C259.854 58.7275 262.662 58.6665 266.405 58.5444C270.189 58.4224 273.017 58.3613 274.889 58.3613C275.988 58.3613 276.68 58.931 276.964 60.0703C277.412 61.7793 277.636 66.3773 277.636 73.8643ZM306.872 79.8457C306.872 90.9541 306.912 99.4787 306.994 105.419C306.994 106.355 307.055 107.963 307.177 110.241C307.299 112.316 307.36 113.924 307.36 115.063C307.36 115.917 306.851 116.426 305.834 116.589C304.003 116.914 300.707 117.077 295.946 117.077C291.063 117.077 287.951 116.914 286.608 116.589C285.713 116.385 285.204 115.836 285.082 114.941C285.082 114.819 285.082 113.944 285.082 112.316C285.082 108.695 285.123 103.283 285.204 96.0811C285.285 88.8382 285.326 83.4264 285.326 79.8457C285.326 62.7559 285.347 54.9637 285.387 56.4692C285.265 47.4767 284.757 39.7253 283.861 33.2148C283.78 32.7673 283.739 32.4214 283.739 32.1772C283.739 31.2821 284.268 30.8345 285.326 30.8345H307.116C308.133 30.8345 308.601 31.2617 308.52 32.1162L308.458 33.2148C307.401 50.793 306.872 66.3366 306.872 79.8457ZM374.01 83.4468C374.01 87.5565 372.688 89.8962 370.043 90.4658C369.595 90.5472 365.384 90.9948 357.409 91.8086C352.607 92.3376 345.446 92.9683 335.924 93.7007C336.494 96.3455 338.223 98.3597 341.112 99.7432C343.472 100.882 346.158 101.452 349.169 101.452C352.79 101.452 356.432 100.476 360.094 98.5225C361.64 97.5459 363.187 96.5693 364.733 95.5928C365.587 95.9997 367.012 98.0749 369.005 101.818C371.04 105.562 372.057 107.942 372.057 108.959C372.057 109.244 371.752 109.712 371.142 110.363C366.177 115.694 358.467 118.359 348.009 118.359C338.325 118.359 330.513 115.531 324.572 109.875C318.468 104.138 315.417 96.4676 315.417 86.8647C315.417 77.506 318.143 69.8359 323.595 63.8545C329.21 57.6696 336.657 54.5771 345.934 54.5771C353.747 54.5771 360.379 57.4255 365.832 63.1221C371.284 68.8187 374.01 75.5936 374.01 83.4468ZM352.648 79.7236C352.648 77.2008 351.753 74.9832 349.962 73.0708C348.172 71.1584 346.036 70.2021 343.554 70.2021C340.99 70.2021 338.874 71.2804 337.206 73.437C335.66 75.4308 334.887 77.7705 334.887 80.4561C334.887 81.5547 335.456 82.104 336.596 82.104C339.607 82.104 344.286 81.6361 350.634 80.7002C351.977 80.4967 352.648 80.1712 352.648 79.7236ZM436.632 83.4468C436.632 87.5565 435.31 89.8962 432.665 90.4658C432.217 90.5472 428.006 90.9948 420.031 91.8086C415.229 92.3376 408.068 92.9683 398.546 93.7007C399.116 96.3455 400.845 98.3597 403.734 99.7432C406.094 100.882 408.78 101.452 411.791 101.452C415.412 101.452 419.054 100.476 422.716 98.5225C424.263 97.5459 425.809 96.5693 427.355 95.5928C428.209 95.9997 429.634 98.0749 431.627 101.818C433.662 105.562 434.679 107.942 434.679 108.959C434.679 109.244 434.374 109.712 433.764 110.363C428.799 115.694 421.089 118.359 410.631 118.359C400.947 118.359 393.135 115.531 387.194 109.875C381.09 104.138 378.039 96.4676 378.039 86.8647C378.039 77.506 380.765 69.8359 386.217 63.8545C391.833 57.6696 399.279 54.5771 408.556 54.5771C416.369 54.5771 423.001 57.4255 428.454 63.1221C433.906 68.8187 436.632 75.5936 436.632 83.4468ZM415.27 79.7236C415.27 77.2008 414.375 74.9832 412.584 73.0708C410.794 71.1584 408.658 70.2021 406.176 70.2021C403.612 70.2021 401.496 71.2804 399.828 73.437C398.282 75.4308 397.509 77.7705 397.509 80.4561C397.509 81.5547 398.078 82.104 399.218 82.104C402.229 82.104 406.908 81.6361 413.256 80.7002C414.599 80.4967 415.27 80.1712 415.27 79.7236Z" fill="#009245"/>
</svg>
