<svg width="560" height="180" viewBox="0 0 560 180" fill="none" xmlns="http://www.w3.org/2000/svg">
  <path d="M0 90C0 139.706 40.2944 180 90 180C139.706 180 180 139.706 180 90C180 40.2944 139.706 0 90 0C40.2944 0 0 40.2944 0 90Z" fill="white"/>
  <path d="M58.2563 149.702H123.416C123.671 149.702 123.916 149.804 124.096 149.984C124.276 150.164 124.378 150.409 124.378 150.664V154.138C124.378 154.392 124.276 154.637 124.096 154.817C123.916 154.997 123.671 155.099 123.416 155.099H58.2563C57.588 155.099 56.947 154.833 56.4744 154.361C56.0018 153.888 55.7363 153.247 55.7363 152.579V152.219C55.7363 151.55 56.0018 150.909 56.4744 150.437C56.947 149.964 57.588 149.699 58.2563 149.699V149.702Z" fill="#009245" stroke="black" stroke-width="2" stroke-miterlimit="10"/>
  <path d="M124.325 58.0106C123.389 41.411 108.975 26.7986 90.0386 26.7986C72.3986 26.7986 58.5855 38.6786 56.1159 54.479C55.9316 55.6487 55.8114 56.8277 55.7559 58.0106C55.7055 59.0618 55.6658 60.257 55.6334 61.5746C55.2734 75.4202 55.7559 102.528 55.7559 113.602C55.7559 130.839 71.1062 144.814 90.0386 144.814H123.13C123.446 144.814 123.75 144.688 123.974 144.465C124.198 144.242 124.324 143.939 124.325 143.622V113.602C124.325 101.477 125.005 70.1174 124.325 58.0106ZM78.1082 91.469C78.1082 85.709 83.2886 81.029 89.6786 81.029C96.0686 81.029 101.253 85.709 101.253 91.469C101.253 97.229 96.0722 101.909 89.6786 101.909C83.285 101.909 78.1082 97.229 78.1082 91.469Z" fill="#009245" stroke="black" stroke-width="2" stroke-miterlimit="10"/>
  <path d="M124.309 61.5278C125.008 42.3614 109.002 27.1226 90.0661 27.1226C73.5385 27.1226 58.9801 38.7038 56.1181 54.4826C55.6942 56.8164 55.5324 59.1904 55.6357 61.5602V61.5926C55.8193 65.8118 55.7437 71.5106 55.7437 78.1706C56.1685 83.7902 58.4581 90.0506 63.5629 97.0922C68.6677 104.134 76.5949 111.895 88.2949 120.51C88.7967 120.878 89.4026 121.076 90.0247 121.076C90.6468 121.076 91.2527 120.878 91.7545 120.51C96.1465 117.288 99.9733 114.261 103.307 111.381C117.707 98.9606 122.884 89.4206 124.324 80.0606V79.1066V75.4022C124.331 68.7134 124.162 65.5706 124.309 61.5278ZM89.6809 101.902C83.2909 101.902 78.1105 97.2218 78.1105 91.4618C78.1105 85.7018 83.2909 81.0218 89.6809 81.0218C96.0709 81.0218 101.255 85.7018 101.255 91.4618C101.255 97.2218 96.0745 101.902 89.6809 101.902Z" fill="#009245" stroke="black" stroke-width="0.5" stroke-miterlimit="10"/>
  <path d="M103.299 110.916C103.299 128.47 112.529 142.701 123.92 142.701L124.33 79.1317C112.943 79.1317 103.299 93.3625 103.299 110.916Z" fill="#009245" stroke="black" stroke-width="0.5" stroke-miterlimit="10"/>
  <path d="M77.1149 149.512C77.098 150.068 76.861 150.594 76.4559 150.976C76.0509 151.357 75.511 151.562 74.9549 151.545C74.3988 151.562 73.859 151.357 73.4539 150.976C73.0489 150.594 72.8119 150.068 72.7949 149.512V139.338C72.8119 138.782 73.0489 138.255 73.4539 137.874C73.859 137.492 74.3988 137.287 74.9549 137.304C75.511 137.287 76.0509 137.492 76.4559 137.874C76.861 138.255 77.098 138.782 77.1149 139.338V149.512Z" fill="#FF9300" stroke="black" stroke-width="0.5" stroke-miterlimit="10"/>
  <path d="M81.445 149.512C81.4281 150.068 81.191 150.594 80.786 150.976C80.381 151.357 79.8411 151.562 79.285 151.545C78.7289 151.562 78.189 151.357 77.784 150.976C77.379 150.594 77.1419 150.068 77.125 149.512V139.338C77.1419 138.782 77.379 138.255 77.784 137.874C78.189 137.492 78.7289 137.287 79.285 137.304C79.8411 137.287 80.381 137.492 80.786 137.874C81.191 138.255 81.4281 138.782 81.445 139.338V149.512Z" fill="#FF9300" stroke="black" stroke-width="0.5" stroke-miterlimit="10"/>
  <path d="M85.779 149.512C85.7621 150.068 85.525 150.594 85.12 150.976C84.715 151.357 84.1751 151.562 83.619 151.545C83.0632 151.561 82.5238 151.356 82.119 150.975C81.7142 150.593 81.4769 150.067 81.459 149.512V139.338C81.4769 138.782 81.7142 138.256 82.119 137.875C82.5238 137.494 83.0632 137.288 83.619 137.304C84.1751 137.287 84.715 137.492 85.12 137.874C85.525 138.255 85.7621 138.782 85.779 139.338V149.512Z" fill="#FF9300" stroke="black" stroke-width="0.5" stroke-miterlimit="10"/>
  <path d="M101.943 149.512C101.925 150.067 101.688 150.593 101.283 150.975C100.878 151.356 100.339 151.561 99.783 151.545C99.227 151.562 98.6871 151.357 98.282 150.976C97.877 150.594 97.64 150.068 97.623 149.512V139.338C97.64 138.782 97.877 138.255 98.282 137.874C98.6871 137.492 99.227 137.287 99.783 137.304C100.339 137.288 100.878 137.494 101.283 137.875C101.688 138.256 101.925 138.782 101.943 139.338V149.512Z" fill="#FF9300" stroke="black" stroke-width="0.5" stroke-miterlimit="10"/>
  <path d="M106.273 149.512C106.255 150.067 106.018 150.593 105.613 150.975C105.208 151.356 104.669 151.561 104.113 151.545C103.557 151.562 103.017 151.357 102.612 150.976C102.207 150.594 101.97 150.068 101.953 149.512V139.338C101.97 138.782 102.207 138.255 102.612 137.874C103.017 137.492 103.557 137.287 104.113 137.304C104.669 137.288 105.208 137.494 105.613 137.875C106.018 138.256 106.255 138.782 106.273 139.338V149.512Z" fill="#FF9300" stroke="black" stroke-width="0.5" stroke-miterlimit="10"/>
  <path d="M110.603 149.512C110.585 150.067 110.348 150.593 109.943 150.975C109.538 151.356 108.999 151.561 108.443 151.545C107.887 151.562 107.347 151.357 106.942 150.976C106.537 150.594 106.3 150.068 106.283 149.512V139.338C106.3 138.782 106.537 138.255 106.942 137.874C107.347 137.492 107.887 137.287 108.443 137.304C108.999 137.288 109.538 137.494 109.943 137.875C110.348 138.256 110.585 138.782 110.603 139.338V149.512Z" fill="#FF9300" stroke="black" stroke-width="0.5" stroke-miterlimit="10"/>
  <path d="M90.0398 58.8168C87.1022 58.8168 84.5678 60.3864 83.3906 62.6544C83.0472 63.3619 82.9185 64.1544 83.0202 64.9342C83.1219 65.714 83.4496 66.447 83.963 67.0428L89.1614 73.3176C89.2684 73.4473 89.4029 73.5518 89.555 73.6235C89.7072 73.6952 89.8733 73.7324 90.0416 73.7324C90.2098 73.7324 90.3759 73.6952 90.5281 73.6235C90.6803 73.5518 90.8147 73.4473 90.9218 73.3176L96.1094 67.0572C96.655 66.4058 96.9862 65.6019 97.0577 64.7552C97.1292 63.9085 96.9376 63.0604 96.509 62.3268C95.8247 61.2337 94.8694 60.3362 93.7359 59.7212C92.6024 59.1062 91.3292 58.7946 90.0398 58.8168Z" fill="#FF9300" stroke="black" stroke-miterlimit="10"/>
  <path d="M89.68 57.276C89.68 65.2428 82.5844 71.7048 73.84 71.7048C65.0956 71.7048 58 65.2248 58 57.276C58 49.3272 65.0812 42.84 73.8328 42.84C82.5844 42.84 89.68 49.32 89.68 57.276Z" fill="#F1F1F1" stroke="black" stroke-miterlimit="10"/>
  <path d="M84.473 57.2759C84.473 62.6399 79.7066 66.9599 73.8314 66.9599C67.9562 66.9599 63.1934 62.6399 63.1934 57.2723C63.1934 51.9047 67.9562 47.5847 73.8314 47.5847C79.7066 47.5847 84.473 51.9263 84.473 57.2759Z" fill="#009245" stroke="black" stroke-width="0.25" stroke-miterlimit="10"/>
  <path d="M73.8314 49.4208C69.0722 49.4208 65.1914 52.9452 65.1914 57.276C65.1914 61.6068 69.0614 65.1312 73.8314 65.1312C78.6014 65.1312 82.4714 61.6068 82.4714 57.276C82.4714 52.9452 78.5906 49.4208 73.8314 49.4208Z" fill="#F1F1F1"/>
  <path d="M81.1764 57.276C81.1764 60.9732 77.8824 63.972 73.8216 63.972C69.7608 63.972 66.4668 60.9732 66.4668 57.276C66.4668 53.5788 69.7608 50.58 73.8216 50.58C77.8824 50.58 81.1764 53.5788 81.1764 57.276Z" fill="#201815"/>
  <path d="M79.912 55.296C79.9497 55.7009 79.8642 56.1078 79.6665 56.4631C79.4688 56.8185 79.1683 57.1058 78.8044 57.2873C78.4405 57.4688 78.0302 57.536 77.6274 57.4801C77.2247 57.4241 76.8482 57.2477 76.5475 56.974C76.2468 56.7002 76.0359 56.3419 75.9425 55.9461C75.8492 55.5504 75.8777 55.1356 76.0243 54.7563C76.1709 54.377 76.4288 54.0509 76.7641 53.8209C77.0995 53.5908 77.4965 53.4675 77.9032 53.4672C78.4117 53.4447 78.9085 53.6244 79.2849 53.9671C79.6613 54.3098 79.8868 54.7876 79.912 55.296Z" fill="#F1F1F1"/>
  <path d="M122.215 57.276C122.215 65.2428 115.123 71.7048 106.375 71.7048C97.6272 71.7048 90.5352 65.2248 90.5352 57.276C90.5352 49.3272 97.6128 42.84 106.375 42.84C115.138 42.84 122.215 49.32 122.215 57.276Z" fill="#F1F1F1" stroke="black" stroke-miterlimit="10"/>
  <path d="M117.007 57.2759C117.007 62.6399 112.244 66.9599 106.376 66.9599C100.508 66.9599 95.7383 62.6399 95.7383 57.2723C95.7383 51.9047 100.501 47.5847 106.376 47.5847C112.251 47.5847 117.007 51.9263 117.007 57.2759Z" fill="#009245" stroke="black" stroke-width="0.25" stroke-miterlimit="10"/>
  <path d="M106.376 49.4208C101.621 49.4208 97.7363 52.9452 97.7363 57.276C97.7363 61.6068 101.606 65.1312 106.376 65.1312C111.146 65.1312 115.016 61.6068 115.016 57.276C115.016 52.9452 111.125 49.4208 106.376 49.4208Z" fill="#F1F1F1"/>
  <path d="M113.72 57.276C113.72 60.9732 110.426 63.972 106.365 63.972C102.304 63.972 99.0137 60.9732 99.0137 57.276C99.0137 53.5788 102.304 50.58 106.365 50.58C110.426 50.58 113.72 53.5788 113.72 57.276Z" fill="#201815" stroke="black" stroke-width="0.25" stroke-miterlimit="10"/>
  <path d="M112.445 55.296C112.483 55.7009 112.397 56.1078 112.2 56.4631C112.002 56.8185 111.702 57.1058 111.338 57.2873C110.974 57.4688 110.563 57.536 110.161 57.4801C109.758 57.4241 109.381 57.2477 109.081 56.974C108.78 56.7002 108.569 56.3419 108.476 55.9461C108.382 55.5504 108.411 55.1356 108.558 54.7563C108.704 54.377 108.962 54.0509 109.297 53.8209C109.633 53.5908 110.03 53.4675 110.436 53.4672C110.945 53.4447 111.442 53.6244 111.818 53.9671C112.195 54.3098 112.42 54.7876 112.445 55.296Z" fill="#F1F1F1" stroke="black" stroke-width="0.25" stroke-miterlimit="10"/>
  <path d="M124.462 28.5085C124.534 28.4454 124.59 28.3669 124.628 28.279C124.665 28.1911 124.682 28.0959 124.677 28.0005C124.673 27.9051 124.647 27.8119 124.602 27.7279C124.556 27.6438 124.493 27.571 124.415 27.5149C119.239 23.8717 107.981 27.5149 98.6539 36.0037C94.8163 39.4957 91.8859 43.2865 90.0391 46.8685C88.1923 43.2685 85.2619 39.4957 81.4243 36.0037C72.1003 27.5113 60.8395 23.8717 55.6627 27.5149C55.5866 27.5715 55.524 27.6443 55.4795 27.7279C55.4349 27.8116 55.4095 27.9041 55.405 27.9988C55.4005 28.0935 55.4171 28.1881 55.4536 28.2756C55.4901 28.3631 55.5455 28.4414 55.6159 28.5049L89.5171 59.3749C89.6597 59.5052 89.8459 59.5774 90.0391 59.5774C90.2323 59.5774 90.4185 59.5052 90.5611 59.3749L124.462 28.5085Z" fill="#009245" stroke="black" stroke-width="0.5" stroke-miterlimit="10"/>
  <path d="M302.393 91.2754C302.393 103.971 298.344 114.611 290.247 123.197C281.987 131.904 271.53 136.258 258.875 136.258C246.302 136.258 235.865 131.864 227.564 123.075C219.426 114.489 215.357 103.889 215.357 91.2754C215.357 78.6208 219.426 67.9803 227.564 59.354C235.865 50.5243 246.302 46.1094 258.875 46.1094C271.367 46.1094 281.784 50.5243 290.125 59.354C298.304 68.0617 302.393 78.7021 302.393 91.2754ZM279.261 91.1533C279.261 85.0498 277.409 79.8618 273.707 75.5894C269.841 71.1134 264.897 68.8755 258.875 68.8755C253.138 68.8755 248.275 71.1948 244.288 75.8335C240.422 80.3094 238.489 85.4567 238.489 91.2754C238.489 97.501 240.3 102.689 243.921 106.839C247.746 111.193 252.731 113.37 258.875 113.37C264.612 113.37 269.495 111.071 273.523 106.473C277.348 102.079 279.261 96.972 279.261 91.1533ZM398.646 91.2754C398.646 97.623 398.137 102.038 397.12 104.52C396.062 107.124 393.417 111.966 389.185 119.046C384.872 126.33 381.902 130.847 380.274 132.596C379.175 133.776 376.49 134.366 372.217 134.366C368.677 134.366 366.439 134.244 365.503 134C364.73 133.797 364.018 133.39 363.367 132.779C361.048 130.501 357.467 124.906 352.625 115.995C347.498 125.15 343.999 130.745 342.127 132.779C341.15 133.837 338.485 134.366 334.131 134.366C331.039 134.366 329.045 134.244 328.15 134C326.115 133.43 322.677 129.015 317.835 120.755C313.888 114.001 311.06 108.589 309.351 104.52C308.293 101.916 307.764 97.501 307.764 91.2754C307.764 83.7477 307.968 79.1497 308.375 77.4814C308.659 76.4235 309.371 75.8945 310.511 75.8945C312.382 75.8945 315.19 75.9556 318.934 76.0776C322.677 76.1997 325.485 76.2607 327.356 76.2607C328.292 76.2607 328.76 76.9321 328.76 78.2749C328.76 79.4549 328.72 81.2656 328.638 83.707C328.557 86.1077 328.516 87.8981 328.516 89.0781C328.516 94.0016 328.638 97.6434 328.882 100.003C328.964 100.899 330.042 103.198 332.117 106.9C334.233 110.562 335.535 112.394 336.023 112.394C336.756 112.394 338.099 110.583 340.052 106.961C341.639 103.91 342.676 101.651 343.165 100.187C343.653 98.681 343.897 94.9985 343.897 89.1392C343.897 87.9185 343.775 86.1077 343.531 83.707C343.327 81.2656 343.226 79.4549 343.226 78.2749C343.226 77.0135 343.694 76.3828 344.629 76.3828C345.769 76.3828 348.027 76.3625 351.404 76.3218L353.907 76.2607C353.866 76.2607 353.785 76.2607 353.663 76.2607C353.581 76.2201 353.561 76.2201 353.602 76.2607H354.029H355.616C357.162 76.2201 359.42 76.2607 362.391 76.3828C363.286 76.5049 363.733 77.1356 363.733 78.2749C363.733 79.8211 363.632 82.1812 363.428 85.355C363.225 88.4881 363.123 90.8278 363.123 92.374C363.123 96.5244 363.286 99.1489 363.611 100.248C364.059 101.631 365.035 103.849 366.541 106.9C368.372 110.562 369.654 112.394 370.386 112.394C371.119 112.394 372.482 110.542 374.476 106.839C376.388 103.299 377.405 100.98 377.527 99.8813C377.69 98.3351 377.771 91.133 377.771 78.2749C377.771 76.8507 378.178 76.1387 378.992 76.1387C380.864 76.1387 383.672 76.0776 387.415 75.9556C391.199 75.8335 394.027 75.7725 395.899 75.7725C396.998 75.7725 397.689 76.3421 397.974 77.4814C398.422 79.1904 398.646 83.7884 398.646 91.2754ZM427.881 97.2568C427.881 108.365 427.922 116.89 428.003 122.831C428.003 123.766 428.064 125.374 428.187 127.652C428.309 129.728 428.37 131.335 428.37 132.474C428.37 133.329 427.861 133.837 426.844 134C425.013 134.326 421.717 134.488 416.956 134.488C412.073 134.488 408.96 134.326 407.618 134C406.722 133.797 406.214 133.247 406.092 132.352C406.092 132.23 406.092 131.355 406.092 129.728C406.092 126.106 406.132 120.694 406.214 113.492C406.295 106.249 406.336 100.838 406.336 97.2568C406.336 80.167 406.356 72.3748 406.397 73.8804C406.275 64.8879 405.766 57.1364 404.871 50.626C404.79 50.1784 404.749 49.8325 404.749 49.5884C404.749 48.6932 405.278 48.2456 406.336 48.2456H428.125C429.143 48.2456 429.611 48.6729 429.529 49.5273L429.468 50.626C428.41 68.2041 427.881 83.7477 427.881 97.2568ZM495.02 100.858C495.02 104.968 493.698 107.307 491.053 107.877C490.605 107.958 486.394 108.406 478.418 109.22C473.617 109.749 466.456 110.379 456.934 111.112C457.504 113.757 459.233 115.771 462.122 117.154C464.482 118.294 467.168 118.863 470.179 118.863C473.8 118.863 477.442 117.887 481.104 115.934C482.65 114.957 484.196 113.98 485.743 113.004C486.597 113.411 488.021 115.486 490.015 119.229C492.05 122.973 493.067 125.353 493.067 126.371C493.067 126.655 492.762 127.123 492.151 127.774C487.187 133.105 479.476 135.77 469.019 135.77C459.335 135.77 451.522 132.942 445.582 127.286C439.478 121.549 436.426 113.879 436.426 104.276C436.426 94.9172 439.153 87.2471 444.605 81.2656C450.22 75.0807 457.667 71.9883 466.944 71.9883C474.756 71.9883 481.389 74.8366 486.841 80.5332C492.294 86.2298 495.02 93.0047 495.02 100.858ZM473.658 97.1348C473.658 94.612 472.763 92.3944 470.972 90.4819C469.182 88.5695 467.046 87.6133 464.563 87.6133C462 87.6133 459.884 88.6916 458.216 90.8481C456.67 92.842 455.896 95.1816 455.896 97.8672C455.896 98.9658 456.466 99.5151 457.605 99.5151C460.617 99.5151 465.296 99.0472 471.644 98.1113C472.986 97.9079 473.658 97.5824 473.658 97.1348ZM557.642 100.858C557.642 104.968 556.32 107.307 553.675 107.877C553.227 107.958 549.016 108.406 541.041 109.22C536.239 109.749 529.078 110.379 519.556 111.112C520.126 113.757 521.855 115.771 524.744 117.154C527.104 118.294 529.79 118.863 532.801 118.863C536.422 118.863 540.064 117.887 543.726 115.934C545.272 114.957 546.819 113.98 548.365 113.004C549.219 113.411 550.643 115.486 552.637 119.229C554.672 122.973 555.689 125.353 555.689 126.371C555.689 126.655 555.384 127.123 554.773 127.774C549.809 133.105 542.098 135.77 531.641 135.77C521.957 135.77 514.144 132.942 508.204 127.286C502.1 121.549 499.048 113.879 499.048 104.276C499.048 94.9172 501.775 87.2471 507.227 81.2656C512.842 75.0807 520.289 71.9883 529.566 71.9883C537.378 71.9883 544.011 74.8366 549.463 80.5332C554.916 86.2298 557.642 93.0047 557.642 100.858ZM536.28 97.1348C536.28 94.612 535.385 92.3944 533.594 90.4819C531.804 88.5695 529.668 87.6133 527.186 87.6133C524.622 87.6133 522.506 88.6916 520.838 90.8481C519.292 92.842 518.519 95.1816 518.519 97.8672C518.519 98.9658 519.088 99.5151 520.228 99.5151C523.239 99.5151 527.918 99.0472 534.266 98.1113C535.608 97.9079 536.28 97.5824 536.28 97.1348Z" fill="white"/>
</svg>
