<svg xmlns="http://www.w3.org/2000/svg" width="18" height="14" viewBox="0 0 18 14" fill="none">
  <path d="M17.6294 2.67065C17.5269 2.29004 17.3265 1.94294 17.048 1.66396C16.7695 1.38498 16.4228 1.18386 16.0424 1.08065C13.7059 0.796141 11.353 0.668522 8.99945 0.698653C6.64625 0.670793 4.2937 0.794716 1.95645 1.06965C1.57694 1.17801 1.2317 1.38221 0.953931 1.66259C0.676171 1.94299 0.475231 2.29013 0.370451 2.67065C0.114841 4.09929 -0.00934733 5.54835 -0.000546333 6.99965C-0.00989833 8.45131 0.114291 9.90074 0.370451 11.3297C0.473551 11.7096 0.674291 12.0558 0.952701 12.3341C1.23112 12.6123 1.57752 12.8128 1.95745 12.9157C4.29356 13.2012 6.64614 13.3302 8.99945 13.3017C11.3526 13.3296 13.7052 13.2056 16.0424 12.9307C16.4224 12.8278 16.7687 12.6273 17.0472 12.3491C17.3256 12.0708 17.5263 11.7246 17.6294 11.3447C17.8847 9.91564 18.0086 8.46625 17.9994 7.01465C18.0166 5.5581 17.8927 4.10331 17.6294 2.67065ZM7.20645 9.69865V4.29865L11.8914 6.99865L7.20645 9.69865Z" fill="white"/>
</svg>
