<svg width="2513" height="849" viewBox="0 0 2513 849" fill="none" xmlns="http://www.w3.org/2000/svg">
  <path d="M157.289 254.077L0 181.209C13.649 123.636 27.249 66.062 40.8 8.48828C79.6252 90.3646 118.455 172.227 157.289 254.077Z" fill="url(#paint0_linear_1044_134)"/>
  <path d="M480.492 452.196L157.288 254.08C118.454 172.204 79.6241 90.3322 40.7988 8.46484L412.291 260.767C435.025 324.581 457.758 388.391 480.492 452.196Z" fill="url(#paint1_linear_1044_134)"/>
  <path d="M157.289 254.082L63.8277 332.98C42.5473 282.405 21.2714 231.834 0 181.268L157.289 254.082Z" fill="url(#paint2_linear_1044_134)"/>
  <path d="M480.493 452.196H164.645L63.8281 332.979L157.29 254.08L480.493 452.196Z" fill="url(#paint3_linear_1044_134)"/>
  <path d="M480.494 452.197L329.811 669.115H201.434C213.826 637.181 226.222 605.252 238.623 573.327L480.494 452.197Z" fill="url(#paint4_linear_1044_134)"/>
  <path d="M480.493 452.197C461.771 550.54 443.05 648.887 424.328 747.238L329.703 669.115L480.493 452.197Z" fill="url(#paint5_linear_1044_134)"/>
  <path d="M424.437 747.238C392.887 780.83 361.345 814.418 329.812 848.001V669.115L424.437 747.238Z" fill="url(#paint6_linear_1044_134)"/>
  <path d="M329.811 669.115V848.001L201.434 669.115H329.811Z" fill="url(#paint7_linear_1044_134)"/>
  <g style="mix-blend-mode:multiply" opacity="0.4">
    <path d="M40.9069 9.49514L98.8105 131.587L156.594 253.412L78.8451 217.386L0.414549 181.026L0.8826 179.06C14.2552 122.539 27.6056 66.0169 40.9337 9.49514M40.8267 8.49219C27.2579 66.0748 13.649 123.653 0 181.227L157.289 254.081L40.8 8.49219H40.8267Z" fill="#7C7C7C"/>
    <path d="M0.641881 181.868L78.5108 217.974L156.674 254.201L110.939 292.767L63.9614 332.39L32.5089 257.718L0.641881 181.868ZM0 181.213C21.2893 231.788 42.5652 282.377 63.8277 332.979L157.289 254.08L0 181.199V181.213Z" fill="#7C7C7C"/>
    <path d="M64.8023 333.539L277.227 394.358L478.124 451.86H164.79L115.725 393.796L64.8023 333.539ZM63.8262 332.924L164.643 452.194H480.491L63.8262 332.977V332.924Z" fill="#7C7C7C"/>
    <path d="M43.4734 10.6984L222.078 131.988L411.97 260.927L446.351 357.331C457.477 388.534 468.621 419.737 479.783 450.939L263.253 232.484L43.4734 10.6984ZM40.7988 8.47852C187.381 156.407 333.945 304.313 480.492 452.196C457.758 388.364 435.025 324.554 412.291 260.767L40.7988 8.4919V8.47852Z" fill="#7C7C7C"/>
    <path d="M157.314 254.521L324.472 356.942L478.258 451.192L277.053 393.596L64.5215 332.777L111.406 293.248L157.328 254.467M157.328 254.053L63.8262 332.978L480.491 452.195L157.288 254.079L157.328 254.053Z" fill="#7C7C7C"/>
    <path d="M477.656 454.011L339.209 561.648L202.22 668.108L219.724 623.015L238.941 573.536L354.601 515.619L477.629 453.985M480.518 452.166L238.673 573.322C226.264 605.256 213.863 637.186 201.471 669.11L480.491 452.193L480.518 452.166Z" fill="#7C7C7C"/>
    <path d="M479.919 453.682L424.221 746.623L363.563 696.556L330.265 669.061L405.045 561.438L479.932 453.682M480.56 452.197L329.811 669.115C361.361 695.156 392.907 721.197 424.449 747.238L480.494 452.197H480.56Z" fill="#7C7C7C"/>
    <path d="M330.145 669.837L363.122 697.051C383.422 713.767 403.699 730.505 423.954 747.265C393.277 779.939 362.605 812.604 331.937 845.26L330.145 847.159V669.837ZM329.811 669.115V848.001L424.449 747.238C392.889 721.197 361.343 695.156 329.811 669.115Z" fill="#7C7C7C"/>
    <path d="M329.477 669.45V846.971L202.116 669.45H329.477ZM329.811 669.115H201.434L329.811 848.001V669.115Z" fill="#7C7C7C"/>
    <path d="M41.9489 10.1237L262.785 232.952L478.352 450.458L324.821 356.382L157.555 253.867L99.5315 131.534L41.9489 10.1237ZM40.7988 8.49219L157.288 254.081L480.492 452.197C333.954 304.295 187.39 156.394 40.7988 8.49219Z" fill="#7C7C7C"/>
    <path d="M479.02 453.802L404.548 560.97L329.661 668.781H202.434L339.624 562.161L479.02 453.842M480.544 452.237L201.471 669.115H329.848L480.491 452.197L480.544 452.237Z" fill="#7C7C7C"/>
  </g>
  <path d="M803.857 254.082C856.278 229.788 908.708 205.49 961.147 181.188L803.857 254.082Z" fill="#000147"/>
  <path d="M803.857 254.082C856.278 229.788 908.708 205.49 961.147 181.188" stroke="#000147" stroke-width="2" stroke-miterlimit="10"/>
  <path d="M961.148 181.209C947.534 123.636 933.934 66.062 920.348 8.48828L961.148 181.209Z" fill="#000147"/>
  <path d="M961.148 181.209C947.534 123.636 933.934 66.062 920.348 8.48828" stroke="#000147" stroke-width="2" stroke-miterlimit="10"/>
  <path d="M897.318 332.98C918.599 282.405 939.875 231.834 961.146 181.268L897.318 332.98Z" fill="#000147"/>
  <path d="M897.318 332.98C918.599 282.405 939.875 231.834 961.146 181.268" stroke="#000147" stroke-width="2" stroke-miterlimit="10"/>
  <path d="M803.857 254.08L897.319 332.979L803.857 254.08Z" fill="#000147"/>
  <path d="M803.857 254.08L897.319 332.979" stroke="#000147" stroke-width="2" stroke-miterlimit="10"/>
  <path d="M480.602 452.197H796.504" stroke="#000147" stroke-width="2" stroke-miterlimit="10"/>
  <path d="M897.32 332.979C758.414 372.74 619.508 412.497 480.602 452.249L897.32 332.979Z" fill="#000147"/>
  <path d="M897.32 332.979C758.414 372.74 619.508 412.497 480.602 452.249" stroke="#000147" stroke-width="2" stroke-miterlimit="10"/>
  <path d="M796.502 452.196L897.318 332.979L796.502 452.196Z" fill="#000147"/>
  <path d="M796.502 452.196L897.318 332.979" stroke="#000147" stroke-width="2" stroke-miterlimit="10"/>
  <path d="M920.347 8.48828L548.922 260.763L920.347 8.48828Z" fill="#000147"/>
  <path d="M920.347 8.48828L548.922 260.763" stroke="#000147" stroke-width="2" stroke-miterlimit="10"/>
  <path d="M548.922 260.768C526.153 324.609 503.38 388.432 480.602 452.237L548.922 260.768Z" fill="#000147"/>
  <path d="M548.922 260.768C526.153 324.609 503.38 388.432 480.602 452.237" stroke="#000147" stroke-width="2" stroke-miterlimit="10"/>
  <path d="M722.54 573.327L480.602 452.197L722.54 573.327Z" fill="#000147"/>
  <path d="M722.54 573.327L480.602 452.197" stroke="#000147" stroke-width="2" stroke-miterlimit="10"/>
  <path d="M759.688 669.116L722.539 573.328L759.688 669.116Z" fill="#000147"/>
  <path d="M759.688 669.116L722.539 573.328" stroke="#000147" stroke-width="2" stroke-miterlimit="10"/>
  <path d="M480.602 452.197L759.689 669.115L480.602 452.197Z" fill="#000147"/>
  <path d="M480.602 452.197L759.689 669.115" stroke="#000147" stroke-width="2" stroke-miterlimit="10"/>
  <path d="M536.658 747.238C568.218 721.197 599.764 695.156 631.296 669.115L536.658 747.238Z" fill="#000147"/>
  <path d="M536.658 747.238C568.218 721.197 599.764 695.156 631.296 669.115" stroke="#000147" stroke-width="2" stroke-miterlimit="10"/>
  <path d="M480.602 452.197L536.7 747.238" stroke="#000147" stroke-width="2" stroke-miterlimit="10"/>
  <path d="M631.338 669.115L480.602 452.197L631.338 669.115Z" fill="#000147"/>
  <path d="M631.338 669.115L480.602 452.197" stroke="#000147" stroke-width="2" stroke-miterlimit="10"/>
  <path d="M631.336 848.001V669.115" stroke="#000147" stroke-width="2" stroke-miterlimit="10"/>
  <path d="M536.658 747.234L631.296 847.997L536.658 747.234Z" fill="#000147"/>
  <path d="M536.658 747.234L631.296 847.997" stroke="#000147" stroke-width="2" stroke-miterlimit="10"/>
  <path d="M759.687 669.115H631.336" stroke="#000147" stroke-width="2" stroke-miterlimit="10"/>
  <path d="M631.336 848.001L759.713 669.115L631.336 848.001Z" fill="#000147"/>
  <path d="M631.336 848.001L759.713 669.115" stroke="#000147" stroke-width="2" stroke-miterlimit="10"/>
  <path d="M480.602 452.196L803.859 254.08L480.602 452.196Z" fill="#000147"/>
  <path d="M480.602 452.196L803.859 254.08" stroke="#000147" stroke-width="2" stroke-miterlimit="10"/>
  <path d="M920.348 8.48828C773.766 156.408 627.184 304.309 480.602 452.193L920.348 8.48828Z" fill="#000147"/>
  <path d="M920.348 8.48828C773.766 156.408 627.184 304.309 480.602 452.193" stroke="#000147" stroke-width="2" stroke-miterlimit="10"/>
  <path d="M803.857 254.08L920.347 8.46484L803.857 254.08Z" fill="#000147"/>
  <path d="M803.857 254.08L920.347 8.46484" stroke="#000147" stroke-width="2" stroke-miterlimit="10"/>
  <path d="M804.447 245.219C808.787 245.219 812.305 248.737 812.306 253.076C812.306 257.416 808.787 260.935 804.447 260.935C800.108 260.934 796.59 257.416 796.59 253.076C796.59 248.737 800.108 245.219 804.447 245.219Z" fill="#000147" stroke="#000147"/>
  <path d="M959.568 173.006C963.908 173.006 967.426 176.524 967.427 180.863C967.427 185.203 963.908 188.722 959.568 188.722C955.229 188.721 951.711 185.203 951.711 180.863C951.711 176.524 955.229 173.006 959.568 173.006Z" fill="#000147" stroke="#000147"/>
  <path d="M896.717 324.115C901.056 324.115 904.575 327.633 904.575 331.973C904.575 336.312 901.057 339.831 896.717 339.831C892.377 339.831 888.859 336.312 888.859 331.973C888.86 327.633 892.377 324.115 896.717 324.115Z" fill="#000147" stroke="#000147"/>
  <path d="M631.939 661.111C636.279 661.111 639.798 664.629 639.798 668.969C639.798 673.309 636.279 676.827 631.939 676.827C627.6 676.827 624.082 673.308 624.082 668.969C624.082 664.629 627.6 661.112 631.939 661.111Z" fill="#000147" stroke="#000147"/>
  <path d="M536.992 738.67C541.332 738.67 544.85 742.188 544.851 746.527C544.851 750.867 541.332 754.386 536.992 754.386C532.653 754.385 529.135 750.867 529.135 746.527C529.135 742.188 532.653 738.67 536.992 738.67Z" fill="#000147" stroke="#000147"/>
  <path d="M757.641 661.111C761.98 661.111 765.499 664.629 765.499 668.969C765.499 673.309 761.98 676.827 757.641 676.827C753.301 676.827 749.783 673.308 749.783 668.969C749.783 664.629 753.301 661.112 757.641 661.111Z" fill="#000147" stroke="#000147"/>
  <path d="M920.787 0.5C925.127 0.5 928.645 4.01785 928.646 8.35742C928.646 12.6972 925.127 16.2158 920.787 16.2158C916.448 16.2156 912.93 12.6971 912.93 8.35742C912.93 4.01801 916.448 0.500262 920.787 0.5Z" fill="#000147" stroke="#000147"/>
  <path d="M1068 379.727H1098C1110.06 379.727 1119.34 381.156 1125.81 384.015C1132.15 386.761 1137.5 391.359 1141.18 397.206C1144.93 403.116 1146.88 409.986 1146.8 416.984C1146.87 423.472 1145.17 429.856 1141.86 435.441C1138.37 441.18 1133.36 445.845 1127.39 448.922C1134 450.932 1140.19 454.14 1145.65 458.386C1149.88 461.983 1153.27 466.468 1155.58 471.523C1158 476.755 1159.24 482.459 1159.2 488.224C1159.29 494.042 1158.14 499.812 1155.83 505.153C1153.53 510.494 1150.11 515.283 1145.81 519.203C1136.89 527.647 1124.91 531.87 1109.87 531.87H1068V379.727ZM1082.89 394.619V443.331H1091.6C1102.16 443.331 1109.94 442.347 1114.92 440.381C1119.71 438.548 1123.83 435.305 1126.74 431.08C1129.6 426.933 1131.12 422.005 1131.08 416.966C1131.24 413.858 1130.67 410.756 1129.41 407.908C1128.15 405.061 1126.25 402.549 1123.84 400.572C1119.02 396.615 1111.26 394.631 1100.57 394.619H1082.89ZM1082.89 458.639V516.959H1101.75C1112.88 516.959 1121.03 515.874 1126.19 513.702C1131.27 511.61 1135.61 508.066 1138.68 503.515C1142.05 498.632 1143.69 492.766 1143.34 486.845C1142.99 480.925 1140.68 475.29 1136.76 470.835C1131.93 465.554 1125.55 461.938 1118.54 460.503C1113.36 459.296 1104.35 458.693 1091.51 458.693L1082.89 458.639Z" fill="#000147"/>
  <path d="M1184.97 419.334H1199.44V471.809C1199.44 484.633 1200.13 493.457 1201.51 498.282C1203.43 504.935 1207.63 510.699 1213.38 514.568C1219.55 518.672 1226.83 520.771 1234.24 520.575C1241.53 520.799 1248.71 518.757 1254.8 514.731C1260.27 511.038 1264.37 505.635 1266.45 499.368C1267.9 495.025 1268.62 485.821 1268.62 471.755V419.279H1283.4V474.505C1283.4 490.007 1281.59 501.69 1277.98 509.555C1274.54 517.213 1268.86 523.648 1261.69 528.012C1254.45 532.464 1245.34 534.689 1234.35 534.689C1223.36 534.689 1214.21 532.464 1206.9 528.012C1199.63 523.655 1193.88 517.158 1190.45 509.411C1186.83 501.425 1185.02 489.446 1185.02 473.474L1184.97 419.334Z" fill="#000147"/>
  <path d="M1328.19 377.557H1342.66V419.338H1365.57V431.86H1342.66V531.853H1328.19V431.86H1308.43V419.338H1328.19V377.557Z" fill="#000147"/>
  <path d="M1399.96 377.557H1414.43V419.338H1437.39V431.86H1414.43V531.853H1399.96V431.86H1380.2V419.338H1399.96V377.557Z" fill="#000147"/>
  <path d="M1553.76 494.521L1565.96 500.927C1562.5 508.041 1557.81 514.486 1552.1 519.963C1546.95 524.722 1540.93 528.456 1534.38 530.965C1527.27 533.581 1519.73 534.863 1512.14 534.746C1493.78 534.746 1479.43 528.715 1469.08 516.651C1459.04 505.436 1453.51 490.9 1453.55 475.847C1453.41 461.993 1458.05 448.513 1466.69 437.685C1477.8 423.474 1492.67 416.375 1511.31 416.387C1530.49 416.387 1545.81 423.661 1557.25 438.209C1565.4 448.487 1569.54 461.311 1569.69 476.679H1468.35C1468.63 489.744 1472.81 500.456 1480.88 508.816C1484.71 512.882 1489.36 516.098 1494.51 518.258C1499.67 520.418 1505.22 521.473 1510.8 521.356C1516.51 521.361 1522.18 520.344 1527.52 518.352C1532.58 516.571 1537.26 513.885 1541.35 510.427C1546.26 505.779 1550.45 500.417 1553.76 494.521ZM1553.76 464.212C1552.29 457.511 1549.41 451.201 1545.31 445.701C1541.37 440.891 1536.36 437.068 1530.67 434.536C1524.68 431.732 1518.13 430.286 1511.51 430.302C1501.06 430.133 1490.94 433.936 1483.19 440.942C1477.38 446.117 1472.99 453.874 1470.04 464.212H1553.76Z" fill="#000147"/>
  <path d="M1591.27 419.337H1606.06V435.785C1609.72 430.099 1614.46 425.182 1620.01 421.309C1624.52 418.225 1629.85 416.55 1635.32 416.496C1639.85 416.656 1644.26 417.97 1648.15 420.314L1640.62 432.474C1638.22 431.314 1635.62 430.644 1632.96 430.502C1627.73 430.671 1622.74 432.795 1619 436.455C1614.51 440.412 1611.09 446.564 1608.75 454.912C1606.96 461.318 1606.06 474.28 1606.08 493.798V531.798H1591.29L1591.27 419.337Z" fill="#000147"/>
  <path d="M1706.77 375.906V390.075C1702.5 388.042 1697.86 386.88 1693.13 386.655C1690.67 386.566 1688.24 387.155 1686.09 388.356C1684.48 389.201 1683.23 390.603 1682.58 392.301C1681.91 396.207 1681.66 400.175 1681.86 404.135V419.335H1705.38V431.856H1681.86V531.849H1667.38V431.856H1652.6V419.335H1667.38V401.746C1667.38 393.688 1668.12 387.934 1669.61 384.483C1671.16 380.966 1673.8 378.045 1677.15 376.16C1681.08 373.964 1685.52 372.876 1690.02 373.011C1695.71 373.188 1701.35 374.163 1706.77 375.906Z" fill="#000147"/>
  <path d="M1724.76 375.906H1739.23V531.849H1724.76V375.906Z" fill="#000147"/>
  <path d="M1757.24 419.338H1772.55L1811.2 505.977L1848.71 419.338H1864.11L1797 573.001H1781.76L1803.47 523.33L1757.24 419.338Z" fill="#000147"/>
  <path d="M1944 379.727H2031.18V394.619H1959.2V442.317H2030.55V457.21H1959.2V516.923H2030.55V531.815H1944V379.727Z" fill="#000147"/>
  <path d="M2101.39 375.906V390.075C2097.11 388.044 2092.48 386.882 2087.75 386.655C2085.29 386.566 2082.86 387.155 2080.71 388.356C2079.1 389.201 2077.85 390.603 2077.2 392.301C2076.52 396.207 2076.28 400.175 2076.47 404.135V419.335H2100V431.856H2076.47V531.849H2062V431.856H2047.21V419.335H2062V401.746C2062 393.688 2062.74 387.934 2064.22 384.483C2065.77 380.966 2068.42 378.045 2071.77 376.16C2075.69 373.964 2080.14 372.876 2084.64 373.011C2090.33 373.189 2095.97 374.164 2101.39 375.906Z" fill="#000147"/>
  <path d="M2167.89 375.906V390.075C2163.6 388.042 2158.96 386.879 2154.23 386.655C2151.77 386.566 2149.34 387.155 2147.2 388.356C2145.56 389.19 2144.27 390.591 2143.59 392.301C2142.92 396.208 2142.68 400.175 2142.86 404.135V419.335H2166.39V431.856H2142.86V531.849H2128.39V431.856H2113.58V419.335H2128.39V401.746C2128.39 393.694 2129.11 387.94 2130.59 384.483C2132.14 380.961 2134.8 378.039 2138.16 376.16C2142.08 373.964 2146.53 372.876 2151.02 373.011C2156.75 373.179 2162.43 374.154 2167.89 375.906Z" fill="#000147"/>
  <path d="M2282.78 494.52L2294.97 500.925C2291.54 508.038 2286.87 514.483 2281.18 519.961C2276.03 524.716 2270.03 528.45 2263.49 530.963C2256.36 533.578 2248.82 534.86 2241.23 534.745C2222.86 534.745 2208.5 528.713 2198.16 516.65C2188.12 505.434 2182.59 490.898 2182.64 475.845C2182.49 461.988 2187.14 448.506 2195.79 437.683C2206.88 423.521 2221.72 416.439 2240.33 416.439C2259.51 416.439 2274.82 423.714 2286.27 438.262C2294.41 448.54 2298.56 461.363 2298.7 476.732H2197.46C2197.72 489.797 2201.9 500.509 2209.98 508.869C2213.82 512.935 2218.46 516.151 2223.62 518.311C2228.77 520.471 2234.32 521.526 2239.91 521.409C2245.62 521.417 2251.28 520.399 2256.63 518.405C2261.68 516.624 2266.36 513.938 2270.45 510.479C2275.34 505.809 2279.49 500.428 2282.78 494.52ZM2282.78 464.21C2281.31 457.507 2278.43 451.195 2274.33 445.699C2270.38 440.889 2265.37 437.066 2259.69 434.534C2253.69 431.73 2247.15 430.284 2240.52 430.3C2230.03 430.095 2219.85 433.9 2212.06 440.94C2206.26 446.115 2201.87 453.872 2198.91 464.21H2282.78Z" fill="#000147"/>
  <path d="M2434.88 442.714L2423.41 449.843C2413.49 436.67 2399.96 430.084 2382.82 430.084C2369.1 430.084 2357.72 434.493 2348.68 443.311C2344.3 447.427 2340.84 452.409 2338.5 457.939C2336.17 463.47 2335.01 469.427 2335.1 475.43C2335.09 483.563 2337.24 491.553 2341.35 498.573C2345.37 505.675 2351.31 511.505 2358.48 515.402C2369.2 521.071 2381.57 522.8 2393.44 520.287C2405.3 517.774 2415.91 511.178 2423.41 501.649L2434.88 509.195C2429.47 517.322 2421.97 523.837 2413.17 528.05C2403.49 532.643 2392.89 534.934 2382.19 534.745C2364.42 534.745 2349.67 529.094 2337.94 517.79C2332.29 512.526 2327.8 506.132 2324.77 499.021C2321.74 491.911 2320.23 484.243 2320.36 476.515C2320.29 465.843 2323.13 455.354 2328.57 446.17C2333.95 436.901 2341.79 429.304 2351.23 424.221C2361.1 418.916 2372.17 416.214 2383.38 416.368C2390.71 416.348 2397.99 417.502 2404.95 419.788C2411.28 421.745 2417.24 424.748 2422.58 428.672C2427.56 432.503 2431.74 437.273 2434.88 442.714Z" fill="#000147"/>
  <path d="M2475.32 377.557H2489.8V419.338H2512.8V431.86H2489.84V531.853H2475.36V431.86H2455.6V419.338H2475.36L2475.32 377.557Z" fill="#000147"/>
  <defs>
    <linearGradient id="paint0_linear_1044_134" x1="22.3457" y1="10.3738" x2="83.7262" y2="236.358" gradientUnits="userSpaceOnUse">
      <stop stop-color="#000147"/>
      <stop offset="1" stop-color="#0285FF"/>
    </linearGradient>
    <linearGradient id="paint1_linear_1044_134" x1="203.357" y1="77.1468" x2="383.313" y2="523.553" gradientUnits="userSpaceOnUse">
      <stop stop-color="#000147"/>
      <stop offset="1" stop-color="#0285FF"/>
    </linearGradient>
    <linearGradient id="paint2_linear_1044_134" x1="-8.14394" y1="167.708" x2="100.669" y2="283.033" gradientUnits="userSpaceOnUse">
      <stop stop-color="#000147"/>
      <stop offset="1" stop-color="#0285FF"/>
    </linearGradient>
    <linearGradient id="paint3_linear_1044_134" x1="283.875" y1="257.811" x2="264.003" y2="486.938" gradientUnits="userSpaceOnUse">
      <stop stop-color="#000147"/>
      <stop offset="1" stop-color="#0285FF"/>
    </linearGradient>
    <linearGradient id="paint4_linear_1044_134" x1="328.099" y1="488.13" x2="356.784" y2="649.283" gradientUnits="userSpaceOnUse">
      <stop stop-color="#000147"/>
      <stop offset="1" stop-color="#0285FF"/>
    </linearGradient>
    <linearGradient id="paint5_linear_1044_134" x1="404.082" y1="556.317" x2="439.586" y2="696.529" gradientUnits="userSpaceOnUse">
      <stop stop-color="#000147"/>
      <stop offset="1" stop-color="#0285FF"/>
    </linearGradient>
    <linearGradient id="paint6_linear_1044_134" x1="342.985" y1="679.934" x2="374.143" y2="787.343" gradientUnits="userSpaceOnUse">
      <stop stop-color="#000147"/>
      <stop offset="1" stop-color="#0285FF"/>
    </linearGradient>
    <linearGradient id="paint7_linear_1044_134" x1="241.939" y1="638.786" x2="345.644" y2="780.148" gradientUnits="userSpaceOnUse">
      <stop stop-color="#000147"/>
      <stop offset="1" stop-color="#0285FF"/>
    </linearGradient>
  </defs>
</svg>
